<svg width="16" height="18" viewBox="0 0 16 18" fill="none" xmlns="http://www.w3.org/2000/svg">
<path d="M8.35355 0.646446C8.15829 0.451184 7.84171 0.451184 7.64645 0.646446L4.46447 3.82843C4.2692 4.02369 4.2692 4.34027 4.46447 4.53553C4.65973 4.7308 4.97631 4.7308 5.17157 4.53553L8 1.70711L10.8284 4.53553C11.0237 4.7308 11.3403 4.7308 11.5355 4.53553C11.7308 4.34027 11.7308 4.02369 11.5355 3.82843L8.35355 0.646446ZM8.5 10L8.5 1L7.5 1L7.5 10L8.5 10Z" fill="white"/>
<path fill-rule="evenodd" clip-rule="evenodd" d="M11 7H14V16H2V7H5V5H2C0.895431 5 0 5.89543 0 7V16C0 17.1046 0.895431 18 2 18H14C15.1046 18 16 17.1046 16 16V7C16 5.89543 15.1046 5 14 5H11V7Z" fill="white"/>
</svg>
