<svg width="16" height="15" viewBox="0 0 16 15" fill="none" xmlns="http://www.w3.org/2000/svg">
<path d="M7.64645 9.35355C7.84171 9.54882 8.15829 9.54882 8.35355 9.35355L11.5355 6.17157C11.7308 5.97631 11.7308 5.65973 11.5355 5.46447C11.3403 5.2692 11.0237 5.2692 10.8284 5.46447L8 8.29289L5.17157 5.46447C4.97631 5.2692 4.65973 5.2692 4.46447 5.46447C4.2692 5.65973 4.2692 5.97631 4.46447 6.17157L7.64645 9.35355ZM7.5 -3.00516e-08L7.5 9L8.5 9L8.5 3.00516e-08L7.5 -3.00516e-08Z" fill="white"/>
<path fill-rule="evenodd" clip-rule="evenodd" d="M11 4H14V13H2V4H5V2H2C0.895431 2 0 2.89543 0 4V13C0 14.1046 0.895431 15 2 15H14C15.1046 15 16 14.1046 16 13V4C16 2.89543 15.1046 2 14 2H11V4Z" fill="white"/>
</svg>
