<svg width="17" height="18" viewBox="0 0 17 18" fill="none" xmlns="http://www.w3.org/2000/svg">
<path fill-rule="evenodd" clip-rule="evenodd" d="M15.9495 6.14658C15.9495 8.98896 13.6453 11.2932 10.8029 11.2932C7.96053 11.2932 5.65633 8.98896 5.65633 6.14658C5.65633 3.3042 7.96053 1 10.8029 1C13.6453 1 15.9495 3.3042 15.9495 6.14658ZM16.9495 6.14658C16.9495 9.54125 14.1976 12.2932 10.8029 12.2932C9.44273 12.2932 8.18574 11.8514 7.16762 11.1034L0.707107 17.5639L0 16.8568L6.41053 10.4463C5.32534 9.33786 4.65633 7.82035 4.65633 6.14658C4.65633 2.75192 7.40825 0 10.8029 0C14.1976 0 16.9495 2.75192 16.9495 6.14658Z" fill="white"/>
</svg>
